<svg xmlns="http://www.w3.org/2000/svg" width="183" height="131" viewBox="0 0 183 131" fill="none">
  <g clip-path="url(#clip0_590_476)">
    <path d="M101.076 41.8918L119.97 122.303L183 60.001L101.076 41.8918ZM119.433 62.5071L119.537 112.09L104.096 46.3787L119.433 62.5071ZM105.212 44.7739L173.198 59.7988L120.787 61.1514L105.212 44.7739ZM121.346 63.0585L178.673 61.5794L121.464 118.133L121.346 63.0585Z" fill="#fff"></path>
    <path d="M118.56 0L61.6831 59.2734L146.719 78.7872L118.56 0ZM141.551 70.0111L113.823 27.1637L118.419 5.29328L141.551 70.0111ZM116.555 4.85631L111.951 26.7611L69.7648 53.6187L116.555 4.85631ZM112.517 28.6738L143.138 75.9924L65.9953 58.2919L112.517 28.6738Z" fill="#fff"></path>
    <path d="M1.16699 0.480225L29.4637 79.2168L86.2367 19.844L1.16699 0.480225ZM35.4562 50.5305L4.75161 3.2641L81.9229 20.832L35.4562 50.5305ZM34.1537 52.0439L29.5958 73.9207L6.35257 9.24778L34.1537 52.0439ZM36.025 52.4441L78.1638 25.5124L31.4598 74.3553L36.025 52.4441Z" fill="#fff"></path>
    <path d="M10.1445 117.491C10.1445 120.298 13.3508 121.701 16.6148 121.701C19.6451 121.701 22.8514 120.298 22.8514 117.841C22.8514 113.92 18.3052 113.748 15.3329 113.572C7.87198 113.105 0.411475 110.121 0.411475 101.583C0.411475 92.6928 7.92999 88.1902 16.2655 88.1902C24.1337 88.1902 32.1195 92.6928 31.9439 101.583H21.978C21.92 98.7759 19.297 97.6057 16.4411 97.6057C14.0506 97.6057 10.9035 98.2488 10.9035 101.349C10.9035 104.097 13.2348 104.741 17.1401 105.148C25.8249 105.91 33.4026 107.956 33.4026 117.898C33.4026 126.497 25.0671 130.999 16.7328 130.999C8.10604 130.999 -0.170653 126.671 0.00418661 117.489H10.1445V117.491Z" fill="#fff"></path>
    <path d="M36.8433 104.448H44.1873V97.4893H52.0563V104.448H59.5172V112.928H52.0563V119.887H44.1869V112.928H36.8433V104.448Z" fill="#fff"></path>
    <path d="M64.0649 130.006V89.0674C70.1259 89.0674 76.0129 89.0075 82.0751 89.0674C91.8673 89.0674 96.8809 96.7278 96.706 104.448C96.706 111.935 91.7509 119.42 82.0751 119.42H74.731V130.006H64.0649V130.006ZM82.0751 110.121C84.8729 110.121 86.5065 107.137 86.5065 104.156C86.5065 101.232 84.9909 98.3649 82.0751 98.3649H74.5561V110.121H82.0747H82.0751Z" fill="#fff"></path>
    <path d="M181.048 59.6044L137.313 60.7183L137.362 62.6385L181.097 61.5246L181.048 59.6044Z" fill="#fff"></path>
    <path d="M102.563 42.2221L102.152 44.0972L132.107 50.7171L132.519 48.842L102.563 42.2221Z" fill="#fff"></path>
    <path d="M106.783 57.812L112.739 83.1575L111.149 84.7602L105.146 59.2086L106.783 57.812Z" fill="#fff"></path>
  </g>
  <defs>
    <clipPath id="clip0_590_476">
      <rect width="183" height="131" fill="white"></rect>
    </clipPath>
  </defs>
</svg>