<?xml version="1.0" encoding="utf-8"?>
<!-- Generator: Adobe Illustrator 24.0.1, SVG Export Plug-In . SVG Version: 6.00 Build 0)  -->
<svg version="1.1" id="Layer_1" xmlns="http://www.w3.org/2000/svg" xmlns:xlink="http://www.w3.org/1999/xlink" x="0px" y="0px"
	 width="202.289px" height="60px" viewBox="0 0 202.289 60" style="enable-background:new 0 0 202.289 60;" xml:space="preserve">
<style type="text/css">
	.st0{fill:#575756;}
	.st1{fill:#B7CF3B;}
</style>
<g>
	<path class="st0" d="M82.06,10c1.332,0,2.583,0.253,3.755,0.758c1.171,0.506,2.189,1.19,3.052,2.053
		c0.863,0.864,1.547,1.881,2.053,3.052c0.505,1.172,0.758,2.423,0.758,3.755s-0.222,2.565-0.666,3.7
		c-0.444,1.135-1.098,2.127-1.961,2.978c-0.864,0.851-1.955,1.517-3.274,1.998c-1.32,0.481-2.843,0.721-4.569,0.721h-6.03v8.065H70
		V10H82.06z M82.06,24.354c0.764,0,1.43-0.129,1.998-0.388c0.567-0.259,1.03-0.61,1.387-1.054c0.357-0.444,0.623-0.949,0.795-1.517
		c0.172-0.567,0.259-1.159,0.259-1.776c0-0.616-0.111-1.227-0.333-1.831c-0.222-0.604-0.543-1.141-0.962-1.609
		c-0.42-0.468-0.938-0.851-1.554-1.147c-0.617-0.296-1.332-0.444-2.146-0.444h-6.326v9.767H82.06z"/>
	<path class="st0" d="M100.262,14.587v6.77h13.096v4.698h-13.096v6.363h14.761v4.661H95.083V10h19.941v4.587H100.262z"/>
	<path class="st0" d="M125.53,37.081h-5.179V10h12.303c1.384,0,2.65,0.228,3.799,0.684c1.148,0.457,2.131,1.098,2.946,1.924
		c0.815,0.827,1.452,1.813,1.909,2.96c0.457,1.147,0.686,2.399,0.686,3.755c0,2.048-0.513,3.835-1.538,5.364
		c-1.025,1.529-2.39,2.627-4.095,3.293c2.275,3.009,4.523,6.043,6.743,9.101h-6.178c-1.082-1.406-2.139-2.824-3.171-4.254
		c-1.032-1.43-2.065-2.886-3.098-4.365h-5.126V37.081z M125.53,23.873h7.117c0.467,0,0.952-0.093,1.456-0.278
		c0.504-0.185,0.953-0.468,1.346-0.851c0.393-0.382,0.719-0.857,0.977-1.424c0.258-0.567,0.387-1.233,0.387-1.998
		c0-0.394-0.049-0.863-0.147-1.406c-0.098-0.542-0.295-1.06-0.59-1.554c-0.295-0.493-0.713-0.912-1.254-1.258
		c-0.541-0.345-1.266-0.518-2.175-0.518h-7.117V23.873z"/>
	<path class="st0" d="M152.906,37.081h-5.179V10.037h5.179V37.081z"/>
	<path class="st0" d="M177.508,14.587h-7.732v22.493h-5.179V14.587h-7.769V10h20.681V14.587z"/>
	<path class="st0" d="M174.068,37.081l13.836-27.044h0.518l13.836,27.044h-5.623l-2.109-4.254h-12.763l-2.072,4.254H174.068z
		 M184.279,28.313h7.732l-3.848-8.176L184.279,28.313z"/>
</g>
<path class="st1" d="M29.738,0.001C13.604,0.139,0.354,13.209,0.007,29.34c-0.201,9.372,3.902,17.787,10.462,23.421V14.44h28.645
	c3.599,0,6.234,0.831,7.905,2.502c1.671,1.671,2.51,4.306,2.51,7.914v10.416c0,3.599-0.84,6.234-2.51,7.905
	c-1.671,1.671-4.306,2.51-7.905,2.51h-6.16h-6.862v-7.29v-9.151h7.814v9.151h5.208c0.998,0,1.679-0.274,2.053-0.815
	c0.366-0.54,0.549-1.313,0.549-2.311V24.856c0-0.998-0.183-1.771-0.549-2.311c-0.374-0.54-1.056-0.815-2.053-0.815H18.283v35.894
	c3.631,1.542,7.628,2.39,11.825,2.375c16.352-0.058,29.757-13.397,29.89-29.749C60.136,13.48,46.51-0.142,29.738,0.001z"/>
<g>
	<path class="st0" d="M75.451,49.985l-0.008-3.901l-1.934,3.228h-0.488l-1.934-3.178v3.851h-1.043v-5.885h0.9L73.281,48l2.295-3.901
		h0.9l0.009,5.885H75.451z"/>
	<path class="st0" d="M82.261,48.623h-2.943l-0.58,1.362h-1.127l2.648-5.885h1.076l2.657,5.885H82.85L82.261,48.623z M81.899,47.765
		l-1.11-2.573l-1.102,2.573H81.899z"/>
	<path class="st0" d="M90.341,44.099v5.885h-0.9L86.196,46v3.985h-1.085v-5.885h0.9l3.245,3.985v-3.985H90.341z"/>
	<path class="st0" d="M96.108,48.623h-2.943l-0.58,1.362h-1.127l2.648-5.885h1.076l2.657,5.885h-1.143L96.108,48.623z
		 M95.747,47.765l-1.11-2.573l-1.102,2.573H95.747z"/>
	<path class="st0" d="M102.893,46.975h1.034v2.346c-0.303,0.241-0.656,0.426-1.06,0.555c-0.403,0.129-0.818,0.193-1.244,0.193
		c-0.6,0-1.141-0.13-1.623-0.391c-0.482-0.261-0.86-0.621-1.135-1.081c-0.275-0.459-0.412-0.978-0.412-1.555
		c0-0.577,0.137-1.096,0.412-1.555c0.275-0.459,0.654-0.82,1.139-1.081c0.485-0.26,1.03-0.391,1.635-0.391
		c0.493,0,0.942,0.081,1.345,0.244c0.404,0.163,0.743,0.401,1.017,0.715l-0.689,0.673c-0.448-0.448-0.989-0.673-1.623-0.673
		c-0.415,0-0.783,0.087-1.105,0.261c-0.323,0.174-0.575,0.418-0.757,0.731c-0.182,0.314-0.273,0.673-0.273,1.076
		c0,0.392,0.091,0.746,0.273,1.06c0.182,0.314,0.434,0.56,0.757,0.74c0.322,0.18,0.688,0.269,1.097,0.269
		c0.459,0,0.863-0.101,1.211-0.303V46.975z"/>
	<path class="st0" d="M110.149,49.068v0.916h-4.414v-5.885h4.296v0.916h-3.203v1.53h2.842v0.9h-2.842v1.623H110.149z"/>
	<path class="st0" d="M117.144,49.985l-0.008-3.901l-1.934,3.228h-0.488l-1.934-3.178v3.851h-1.043v-5.885h0.9L114.975,48
		l2.295-3.901h0.9l0.009,5.885H117.144z"/>
	<path class="st0" d="M124.552,49.068v0.916h-4.414v-5.885h4.296v0.916h-3.203v1.53h2.842v0.9h-2.842v1.623H124.552z"/>
	<path class="st0" d="M131.37,44.099v5.885h-0.9L127.225,46v3.985h-1.085v-5.885h0.9l3.245,3.985v-3.985H131.37z"/>
	<path class="st0" d="M134.515,45.024h-1.951v-0.925h4.994v0.925h-1.951v4.961h-1.093V45.024z"/>
	<path class="st0" d="M141.442,44.099h1.093v5.885h-1.093V44.099z"/>
	<path class="st0" d="M149.901,49.985l-0.008-3.901l-1.934,3.228h-0.488l-1.934-3.178v3.851h-1.043v-5.885h0.9L147.731,48
		l2.295-3.901h0.9l0.009,5.885H149.901z"/>
	<path class="st0" d="M160.814,44.099v5.885h-1.093v-2.522h-3.044v2.522h-1.093v-5.885h1.093v2.43h3.044v-2.43H160.814z"/>
	<path class="st0" d="M163.891,49.678c-0.482-0.261-0.86-0.622-1.135-1.085c-0.275-0.462-0.412-0.979-0.412-1.551
		s0.137-1.089,0.412-1.551c0.275-0.462,0.653-0.824,1.135-1.085c0.482-0.26,1.023-0.391,1.623-0.391c0.6,0,1.14,0.13,1.622,0.391
		c0.482,0.261,0.86,0.621,1.135,1.081c0.275,0.46,0.412,0.978,0.412,1.555c0,0.577-0.138,1.096-0.412,1.555
		c-0.275,0.46-0.653,0.82-1.135,1.081c-0.482,0.26-1.023,0.391-1.622,0.391C164.914,50.069,164.373,49.938,163.891,49.678z
		 M166.573,48.845c0.314-0.176,0.561-0.423,0.74-0.74c0.179-0.317,0.269-0.671,0.269-1.063c0-0.392-0.09-0.747-0.269-1.063
		c-0.179-0.317-0.426-0.564-0.74-0.74c-0.314-0.177-0.667-0.265-1.059-0.265c-0.392,0-0.746,0.088-1.06,0.265
		c-0.314,0.176-0.561,0.423-0.74,0.74c-0.179,0.317-0.269,0.671-0.269,1.063c0,0.392,0.09,0.747,0.269,1.063
		c0.179,0.317,0.426,0.564,0.74,0.74c0.314,0.177,0.667,0.265,1.06,0.265C165.906,49.11,166.259,49.022,166.573,48.845z"/>
	<path class="st0" d="M171.327,49.678c-0.479-0.261-0.855-0.621-1.127-1.081c-0.272-0.459-0.408-0.978-0.408-1.555
		c0-0.577,0.137-1.096,0.412-1.555c0.275-0.459,0.652-0.82,1.131-1.081c0.479-0.26,1.016-0.391,1.61-0.391
		c0.482,0,0.922,0.084,1.32,0.252c0.398,0.168,0.734,0.412,1.009,0.731l-0.706,0.664c-0.426-0.46-0.95-0.69-1.572-0.69
		c-0.404,0-0.765,0.088-1.084,0.265c-0.32,0.176-0.569,0.422-0.748,0.736s-0.269,0.67-0.269,1.068c0,0.398,0.09,0.754,0.269,1.068
		c0.179,0.314,0.429,0.559,0.748,0.736c0.319,0.177,0.681,0.265,1.084,0.265c0.622,0,1.146-0.233,1.572-0.698l0.706,0.673
		c-0.275,0.32-0.613,0.563-1.013,0.731c-0.401,0.168-0.842,0.252-1.324,0.252C172.343,50.069,171.807,49.938,171.327,49.678z"/>
	<path class="st0" d="M181.926,44.099v5.885h-1.093v-2.522h-3.044v2.522h-1.093v-5.885h1.093v2.43h3.044v-2.43H181.926z"/>
	<path class="st0" d="M188.82,47.458c0.19,0.25,0.286,0.559,0.286,0.929c0,0.51-0.196,0.904-0.589,1.181
		c-0.392,0.278-0.964,0.416-1.715,0.416h-2.926v-5.885h2.758c0.695,0,1.23,0.136,1.606,0.408c0.375,0.272,0.563,0.646,0.563,1.122
		c0,0.292-0.067,0.549-0.202,0.773c-0.135,0.224-0.32,0.398-0.555,0.522C188.371,47.031,188.629,47.209,188.82,47.458z
		 M184.969,44.957v1.623h1.547c0.381,0,0.674-0.069,0.879-0.206s0.307-0.338,0.307-0.601c0-0.269-0.102-0.472-0.307-0.61
		c-0.205-0.137-0.498-0.206-0.879-0.206H184.969z M188.004,48.278c0-0.566-0.423-0.849-1.27-0.849h-1.766v1.698h1.766
		C187.581,49.127,188.004,48.844,188.004,48.278z"/>
	<path class="st0" d="M194.461,48.623h-2.943l-0.58,1.362h-1.127l2.648-5.885h1.076l2.657,5.885h-1.143L194.461,48.623z
		 M194.1,47.765l-1.11-2.573l-1.102,2.573H194.1z"/>
	<path class="st0" d="M197.816,49.384c-0.454-0.457-0.681-1.111-0.681-1.963v-3.321h1.093v3.279c0,1.155,0.499,1.732,1.497,1.732
		c0.992,0,1.488-0.577,1.488-1.732v-3.279h1.076v3.321c0,0.852-0.226,1.506-0.677,1.963c-0.451,0.457-1.083,0.685-1.896,0.685
		C198.903,50.069,198.27,49.841,197.816,49.384z"/>
</g>
</svg>
